# xmcd
#
# Track frame offsets:
#	150
#	17580
#	36237
#	56885
#	69407
#	84195
#	107732
#	123682
#	139362
#	155707
#	174090
#	192780
#
# Disc length: 2868 seconds
#
# Revision: 1
# Processed by: cddbd v1.5.1PL0 Copyright (c) Steve Scherf et al.
# Submitted via: CDex 1.50Beta5
#
DISCID=a10b320c
DTITLE=加藤登紀子 - 沖縄情歌
DYEAR=2003
DGENRE=
TTITLE0=あなたに
TTITLE1=涙そうそう
TTITLE2=昔美しゃ 今美しゃ
TTITLE3=てぃんさぐの花
TTITLE4=芭蕉布
TTITLE5=イラヨイ月夜浜
TTITLE6=アッチャメー小〜多幸山
TTITLE7=西武門哀歌
TTITLE8=色織り坂
TTITLE9=海の子守唄(ふぁむれうた)
TTITLE10=童神〜天の子守唄〜
TTITLE11=花
EXTD=
EXTT0=
EXTT1=
EXTT2=
EXTT3=
EXTT4=
EXTT5=
EXTT6=
EXTT7=
EXTT8=
EXTT9=
EXTT10=
EXTT11=
PLAYORDER=
